<mxfile host="app.diagrams.net" modified="2024-05-27T14:26:29.055Z" agent="Mozilla/5.0 (Windows NT 10.0; Win64; x64) AppleWebKit/537.36 (KHTML, like Gecko) Chrome/123.0.0.0 Safari/537.36" etag="P2uZtnNJgajDb74fTUPv" version="24.4.9" type="device">
  <diagram name="Page-1" id="Se_ml5LRYys2MUGXZMon">
    <mxGraphModel dx="2048" dy="759" grid="1" gridSize="10" guides="1" tooltips="1" connect="1" arrows="1" fold="1" page="1" pageScale="1" pageWidth="827" pageHeight="1169" math="0" shadow="0">
      <root>
        <mxCell id="0" />
        <mxCell id="1" parent="0" />
        <mxCell id="aW0WmloWBGb6vo49M7C3-17" style="rounded=0;orthogonalLoop=1;jettySize=auto;html=1;exitX=1;exitY=0;exitDx=0;exitDy=0;entryX=0;entryY=0.5;entryDx=0;entryDy=0;endArrow=none;endFill=0;" edge="1" parent="1" source="aW0WmloWBGb6vo49M7C3-1" target="aW0WmloWBGb6vo49M7C3-7">
          <mxGeometry relative="1" as="geometry" />
        </mxCell>
        <mxCell id="aW0WmloWBGb6vo49M7C3-21" style="rounded=0;orthogonalLoop=1;jettySize=auto;html=1;exitX=1;exitY=1;exitDx=0;exitDy=0;endArrow=none;endFill=0;" edge="1" parent="1" source="aW0WmloWBGb6vo49M7C3-1" target="aW0WmloWBGb6vo49M7C3-5">
          <mxGeometry relative="1" as="geometry" />
        </mxCell>
        <mxCell id="aW0WmloWBGb6vo49M7C3-1" value="A" style="ellipse;whiteSpace=wrap;html=1;aspect=fixed;fillColor=#dae8fc;strokeColor=#6c8ebf;" vertex="1" parent="1">
          <mxGeometry x="80" y="190" width="80" height="80" as="geometry" />
        </mxCell>
        <mxCell id="aW0WmloWBGb6vo49M7C3-18" style="rounded=0;orthogonalLoop=1;jettySize=auto;html=1;exitX=0.5;exitY=0;exitDx=0;exitDy=0;entryX=0.5;entryY=1;entryDx=0;entryDy=0;endArrow=none;endFill=0;" edge="1" parent="1" source="aW0WmloWBGb6vo49M7C3-2" target="aW0WmloWBGb6vo49M7C3-7">
          <mxGeometry relative="1" as="geometry" />
        </mxCell>
        <mxCell id="aW0WmloWBGb6vo49M7C3-20" style="rounded=0;orthogonalLoop=1;jettySize=auto;html=1;exitX=0.5;exitY=1;exitDx=0;exitDy=0;entryX=0.5;entryY=0;entryDx=0;entryDy=0;endArrow=none;endFill=0;" edge="1" parent="1" source="aW0WmloWBGb6vo49M7C3-2" target="aW0WmloWBGb6vo49M7C3-3">
          <mxGeometry relative="1" as="geometry" />
        </mxCell>
        <mxCell id="aW0WmloWBGb6vo49M7C3-2" value="B" style="ellipse;whiteSpace=wrap;html=1;aspect=fixed;fillColor=#dae8fc;strokeColor=#6c8ebf;" vertex="1" parent="1">
          <mxGeometry x="380" y="310" width="80" height="80" as="geometry" />
        </mxCell>
        <mxCell id="aW0WmloWBGb6vo49M7C3-3" value="C" style="ellipse;whiteSpace=wrap;html=1;aspect=fixed;fillColor=#dae8fc;strokeColor=#6c8ebf;" vertex="1" parent="1">
          <mxGeometry x="380" y="490" width="80" height="80" as="geometry" />
        </mxCell>
        <mxCell id="aW0WmloWBGb6vo49M7C3-19" style="rounded=0;orthogonalLoop=1;jettySize=auto;html=1;exitX=0;exitY=0;exitDx=0;exitDy=0;entryX=1;entryY=1;entryDx=0;entryDy=0;endArrow=none;endFill=0;" edge="1" parent="1" source="aW0WmloWBGb6vo49M7C3-4" target="aW0WmloWBGb6vo49M7C3-7">
          <mxGeometry relative="1" as="geometry" />
        </mxCell>
        <mxCell id="aW0WmloWBGb6vo49M7C3-4" value="D" style="ellipse;whiteSpace=wrap;html=1;aspect=fixed;fillColor=#dae8fc;strokeColor=#6c8ebf;" vertex="1" parent="1">
          <mxGeometry x="650" y="280" width="80" height="80" as="geometry" />
        </mxCell>
        <mxCell id="aW0WmloWBGb6vo49M7C3-5" value="E" style="ellipse;whiteSpace=wrap;html=1;aspect=fixed;fillColor=#dae8fc;strokeColor=#6c8ebf;" vertex="1" parent="1">
          <mxGeometry x="160" y="380" width="80" height="80" as="geometry" />
        </mxCell>
        <mxCell id="aW0WmloWBGb6vo49M7C3-6" value="G" style="ellipse;whiteSpace=wrap;html=1;aspect=fixed;fillColor=#dae8fc;strokeColor=#6c8ebf;" vertex="1" parent="1">
          <mxGeometry x="-60" y="390" width="80" height="80" as="geometry" />
        </mxCell>
        <mxCell id="aW0WmloWBGb6vo49M7C3-7" value="F" style="ellipse;whiteSpace=wrap;html=1;aspect=fixed;fillColor=#dae8fc;strokeColor=#6c8ebf;" vertex="1" parent="1">
          <mxGeometry x="390" y="70" width="80" height="80" as="geometry" />
        </mxCell>
        <mxCell id="aW0WmloWBGb6vo49M7C3-22" style="rounded=0;orthogonalLoop=1;jettySize=auto;html=1;exitX=0;exitY=1;exitDx=0;exitDy=0;entryX=0.767;entryY=0.085;entryDx=0;entryDy=0;entryPerimeter=0;endArrow=none;endFill=0;" edge="1" parent="1" source="aW0WmloWBGb6vo49M7C3-1" target="aW0WmloWBGb6vo49M7C3-6">
          <mxGeometry relative="1" as="geometry" />
        </mxCell>
        <mxCell id="aW0WmloWBGb6vo49M7C3-23" value="16" style="text;html=1;align=center;verticalAlign=middle;whiteSpace=wrap;rounded=0;" vertex="1" parent="1">
          <mxGeometry x="210" y="130" width="60" height="30" as="geometry" />
        </mxCell>
        <mxCell id="aW0WmloWBGb6vo49M7C3-24" value="11" style="text;html=1;align=center;verticalAlign=middle;whiteSpace=wrap;rounded=0;" vertex="1" parent="1">
          <mxGeometry x="550" y="180" width="60" height="30" as="geometry" />
        </mxCell>
        <mxCell id="aW0WmloWBGb6vo49M7C3-25" value="4" style="text;html=1;align=center;verticalAlign=middle;whiteSpace=wrap;rounded=0;" vertex="1" parent="1">
          <mxGeometry x="370" y="210" width="60" height="30" as="geometry" />
        </mxCell>
        <mxCell id="aW0WmloWBGb6vo49M7C3-26" value="7" style="text;html=1;align=center;verticalAlign=middle;whiteSpace=wrap;rounded=0;" vertex="1" parent="1">
          <mxGeometry x="-10" y="305" width="60" height="30" as="geometry" />
        </mxCell>
        <mxCell id="aW0WmloWBGb6vo49M7C3-27" value="21" style="text;html=1;align=center;verticalAlign=middle;whiteSpace=wrap;rounded=0;" vertex="1" parent="1">
          <mxGeometry x="170" y="310" width="60" height="30" as="geometry" />
        </mxCell>
        <mxCell id="aW0WmloWBGb6vo49M7C3-28" value="9" style="text;html=1;align=center;verticalAlign=middle;whiteSpace=wrap;rounded=0;" vertex="1" parent="1">
          <mxGeometry x="360" y="430" width="60" height="30" as="geometry" />
        </mxCell>
      </root>
    </mxGraphModel>
  </diagram>
</mxfile>
